<svg width="80" height="46" viewBox="0 0 80 46" fill="none" xmlns="http://www.w3.org/2000/svg">
<rect width="80" height="45" transform="translate(0 0.449951)" fill="#054A68"/>
<path d="M17.233 28.45V18.2681H23.3778V19.3619H18.4659V22.8022H23.0597V23.896H18.4659V27.3562H23.4574V28.45H17.233ZM26.6143 23.8562V28.45H25.4411V20.8136H26.5746V22.0068H26.674C26.853 21.619 27.1248 21.3074 27.4893 21.0721C27.8539 20.8335 28.3246 20.7142 28.9013 20.7142C29.4183 20.7142 29.8707 20.8202 30.2585 21.0323C30.6463 21.2411 30.9479 21.5593 31.1634 21.9869C31.3788 22.4111 31.4865 22.9481 31.4865 23.5977V28.45H30.3132V23.6772C30.3132 23.0773 30.1574 22.61 29.8459 22.2752C29.5343 21.9372 29.1068 21.7681 28.5632 21.7681C28.1887 21.7681 27.8539 21.8493 27.5589 22.0117C27.2673 22.1741 27.0369 22.4111 26.8679 22.7227C26.6989 23.0342 26.6143 23.4121 26.6143 23.8562ZM36.7129 31.4727C36.1461 31.4727 35.6589 31.3998 35.2512 31.2539C34.8436 31.1114 34.5038 30.9225 34.2321 30.6872C33.9636 30.4552 33.7498 30.2066 33.5907 29.9414L34.5254 29.2852C34.6315 29.4244 34.7657 29.5835 34.9281 29.7625C35.0905 29.9447 35.3126 30.1022 35.5943 30.2348C35.8793 30.3706 36.2522 30.4386 36.7129 30.4386C37.3294 30.4386 37.8381 30.2894 38.2392 29.9911C38.6402 29.6928 38.8407 29.2255 38.8407 28.5892V27.038H38.7413C38.6551 27.1772 38.5325 27.3496 38.3734 27.5551C38.2176 27.7572 37.9922 27.9379 37.6973 28.097C37.4056 28.2527 37.0112 28.3306 36.514 28.3306C35.8975 28.3306 35.344 28.1848 34.8535 27.8931C34.3663 27.6015 33.9802 27.1772 33.6951 26.6204C33.4134 26.0636 33.2725 25.3875 33.2725 24.592C33.2725 23.8098 33.4101 23.1287 33.6852 22.5487C33.9603 21.9653 34.3431 21.5146 34.8336 21.1964C35.3242 20.8749 35.8909 20.7142 36.5339 20.7142C37.0311 20.7142 37.4255 20.797 37.7172 20.9627C38.0121 21.1251 38.2375 21.3107 38.3933 21.5196C38.5524 21.725 38.675 21.8941 38.7612 22.0267H38.8805V20.8136H40.014V28.6687C40.014 29.325 39.8649 29.8586 39.5666 30.2696C39.2716 30.6839 38.8739 30.9871 38.3734 31.1794C37.8762 31.3749 37.3227 31.4727 36.7129 31.4727ZM36.6731 27.2767C37.1438 27.2767 37.5415 27.1689 37.8663 26.9535C38.1911 26.7381 38.438 26.4282 38.6071 26.0238C38.7761 25.6195 38.8606 25.1356 38.8606 24.5721C38.8606 24.0219 38.7778 23.5364 38.612 23.1154C38.4463 22.6945 38.2011 22.3647 37.8762 22.1261C37.5514 21.8875 37.1504 21.7681 36.6731 21.7681C36.176 21.7681 35.7617 21.8941 35.4302 22.146C35.1021 22.3979 34.8552 22.7359 34.6895 23.1602C34.527 23.5844 34.4458 24.0551 34.4458 24.5721C34.4458 25.1024 34.5287 25.5714 34.6944 25.9791C34.8635 26.3834 35.112 26.7016 35.4402 26.9336C35.7716 27.1623 36.1826 27.2767 36.6731 27.2767ZM43.335 18.2681V28.45H42.1618V18.2681H43.335ZM45.484 28.45V20.8136H46.6573V28.45H45.484ZM46.0806 19.5409C45.8519 19.5409 45.6547 19.463 45.489 19.3072C45.3266 19.1514 45.2454 18.9642 45.2454 18.7454C45.2454 18.5267 45.3266 18.3394 45.489 18.1836C45.6547 18.0278 45.8519 17.95 46.0806 17.95C46.3093 17.95 46.5049 18.0278 46.6673 18.1836C46.833 18.3394 46.9158 18.5267 46.9158 18.7454C46.9158 18.9642 46.833 19.1514 46.6673 19.3072C46.5049 19.463 46.3093 19.5409 46.0806 19.5409ZM54.2154 22.5238L53.1614 22.8221C53.0951 22.6464 52.9973 22.4758 52.8681 22.31C52.7421 22.141 52.5698 22.0018 52.351 21.8924C52.1323 21.783 51.8522 21.7284 51.5108 21.7284C51.0435 21.7284 50.6541 21.8361 50.3425 22.0515C50.0343 22.2636 49.8801 22.5338 49.8801 22.8619C49.8801 23.1535 49.9862 23.3839 50.1983 23.5529C50.4105 23.722 50.7419 23.8628 51.1926 23.9755L52.3262 24.2539C53.0089 24.4196 53.5177 24.6732 53.8525 25.0146C54.1872 25.3526 54.3546 25.7885 54.3546 26.3221C54.3546 26.7596 54.2286 27.1507 53.9767 27.4954C53.7282 27.8401 53.3801 28.1119 52.9327 28.3107C52.4853 28.5096 51.9649 28.609 51.3716 28.609C50.5927 28.609 49.9481 28.44 49.4377 28.1019C48.9273 27.7639 48.6041 27.27 48.4682 26.6204L49.5819 26.342C49.6879 26.753 49.8884 27.0612 50.1834 27.2667C50.4817 27.4722 50.8712 27.575 51.3517 27.575C51.8986 27.575 52.3328 27.4589 52.6543 27.2269C52.9791 26.9916 53.1415 26.7099 53.1415 26.3818C53.1415 26.1166 53.0487 25.8946 52.8631 25.7156C52.6775 25.5333 52.3925 25.3974 52.008 25.3079L50.7353 25.0096C50.0359 24.8439 49.5222 24.587 49.1941 24.239C48.8693 23.8877 48.7069 23.4485 48.7069 22.9215C48.7069 22.4907 48.8278 22.1095 49.0698 21.7781C49.315 21.4466 49.6481 21.1865 50.0691 20.9975C50.4933 20.8086 50.9739 20.7142 51.5108 20.7142C52.2665 20.7142 52.8598 20.8799 53.2907 21.2113C53.7248 21.5428 54.0331 21.9803 54.2154 22.5238ZM57.294 23.8562V28.45H56.1207V18.2681H57.294V22.0068H57.3935C57.5724 21.6124 57.8409 21.2991 58.1989 21.0671C58.5601 20.8318 59.0407 20.7142 59.6406 20.7142C60.161 20.7142 60.6167 20.8186 61.0078 21.0274C61.3989 21.2329 61.7022 21.5494 61.9176 21.9769C62.1364 22.4012 62.2457 22.9414 62.2457 23.5977V28.45H61.0724V23.6772C61.0724 23.0707 60.915 22.6017 60.6001 22.2703C60.2886 21.9355 59.8561 21.7681 59.3026 21.7681C58.9181 21.7681 58.5734 21.8493 58.2685 22.0117C57.9669 22.1741 57.7282 22.4111 57.5526 22.7227C57.3802 23.0342 57.294 23.4121 57.294 23.8562Z" fill="white"/>
</svg>
